<svg xmlns="http://www.w3.org/2000/svg" width="87.002" height="74.42" viewBox="0 0 87.002 74.42">
  <g id="Component_2_1" data-name="Component 2 – 1" transform="matrix(0.616, 0.788, -0.788, 0.616, 74.073, 0)">
    <g id="Ellipse_6" data-name="Ellipse 6" fill="#fff" stroke="#0f996d" stroke-width="2">
      <ellipse cx="10.5" cy="11" rx="10.5" ry="11" stroke="none"/>
      <ellipse cx="10.5" cy="11" rx="9.5" ry="10" fill="none"/>
    </g>
    <g id="Rectangle_15" data-name="Rectangle 15" transform="translate(0 11)" fill="#fff" stroke="#0f996d" stroke-width="2">
      <rect width="21" height="60" stroke="none"/>
      <rect x="1" y="1" width="19" height="58" fill="none"/>
    </g>
    <path id="Path_18" data-name="Path 18" d="M259.962,119.226V125.2l3.495,6.3" transform="translate(-259 -50)" fill="#fff" stroke="#0f996d" stroke-width="2"/>
    <path id="Path_19" data-name="Path 19" d="M279.749,119.226v5.555L270.157,140.6" transform="translate(-259.657 -49.001)" fill="#fff" stroke="#0f996d" stroke-width="2"/>
    <g id="Polygon_1" data-name="Polygon 1" transform="translate(18 94) rotate(180)" fill="#fff">
      <path d="M 13.26858711242676 12 L 1.731413602828979 12 L 7.500000476837158 2.001116037368774 L 13.26858711242676 12 Z" stroke="none"/>
      <path d="M 7.500000476837158 4.002214431762695 L 3.46281623840332 11 L 11.53718376159668 11 L 7.500000476837158 4.002214431762695 M 7.500000476837158 0 L 15 13 L 9.5367431640625e-07 13 L 7.500000476837158 0 Z" stroke="none" fill="#0f996d"/>
    </g>
    <path id="Path_20" data-name="Path 20" d="M265.56,62.287v4.978" transform="translate(-259 -50)" fill="#fff" stroke="#0f996d" stroke-width="2"/>
    <path id="Path_21" data-name="Path 21" d="M265.56,72v47.254" transform="translate(-259 -50)" fill="none" stroke="#0f996d" stroke-width="2"/>
    <path id="Path_22" data-name="Path 22" d="M272.335,62.287v57.244" transform="translate(-259 -50)" fill="none" stroke="#0f996d" stroke-width="2"/>
  </g>
</svg>
