<svg xmlns="http://www.w3.org/2000/svg" width="628" height="612" viewBox="0 0 628 612">
  <g id="Group_8" data-name="Group 8" transform="translate(-876 -233)">
    <path id="Path_36" data-name="Path 36" d="M15,0H146a15,15,0,0,1,15,15V142a15,15,0,0,1-15,15H15A15,15,0,0,1,0,142V15A15,15,0,0,1,15,0Z" transform="translate(1186 233)" fill="#3ca270" opacity="0.53"/>
    <rect id="Rectangle_5" data-name="Rectangle 5" width="161" height="157" rx="15" transform="translate(1033 383)" fill="#fff" opacity="0.47"/>
    <rect id="Rectangle_6" data-name="Rectangle 6" width="157" height="157" rx="15" transform="translate(1347 383)" fill="#3ca177" opacity="0.53"/>
    <rect id="Rectangle_10" data-name="Rectangle 10" width="157" height="157" rx="15" transform="translate(876 536)" fill="#fff" opacity="0.47"/>
    <circle id="Ellipse_3" data-name="Ellipse 3" cx="73" cy="73" r="73" transform="translate(1194 390)" fill="#0f996d"/>
    <circle id="Ellipse_4" data-name="Ellipse 4" cx="74" cy="74" r="74" transform="translate(1038 540)" fill="#97cdb7"/>
    <path id="Path_35" data-name="Path 35" d="M15,0H146a15,15,0,0,1,15,15V142a15,15,0,0,1-15,15H15A15,15,0,0,1,0,142V15A15,15,0,0,1,15,0Z" transform="translate(1186 536)" fill="#3ca270"/>
    <path id="Path_34" data-name="Path 34" d="M15,0H146a15,15,0,0,1,15,15V142a15,15,0,0,1-15,15H15A15,15,0,0,1,0,142V15A15,15,0,0,1,15,0Z" transform="translate(1032 688)" fill="#fff" opacity="0.47"/>
  </g>
</svg>
