<?xml version="1.0" encoding="iso-8859-1"?>
<!-- Generator: Adobe Illustrator 19.0.0, SVG Export Plug-In . SVG Version: 6.00 Build 0)  -->
<svg version="1.1" id="Layer_1" xmlns="http://www.w3.org/2000/svg" xmlns:xlink="http://www.w3.org/1999/xlink" x="0px" y="0px"
	 viewBox="0 0 512 512" style="enable-background:new 0 0 512 512;" xml:space="preserve">
<g transform="translate(1 1)">
	<g>
		<path style="fill:#FFE100;" d="M338.573,269.507l-15.36-23.04v221.867c0,17.067,1.707,31.573-12.8,33.28
			c1.707,0,2.56,0.853,4.267,0.853c18.773,0,34.133-15.36,34.133-34.133V282.307C345.4,278.04,341.987,273.773,338.573,269.507"/>
		<path style="fill:#FFE100;" d="M468.28,280.6c0-2.56-48.64-52.053-76.8-102.4c0,0-24.747-40.96-51.2-68.267v-25.6
			c0-42.667-34.133-68.267-76.8-68.267c42.667,0,51.2,25.6,51.2,68.267v25.6c26.453,27.307,51.2,68.267,51.2,68.267
			c28.16,50.347,76.8,99.84,76.8,102.4s1.707,10.24-8.533,17.067c-3.413,1.707-5.973,4.267-10.24,5.12
			c-2.56,0.853-5.12,1.707-7.68,1.707c11.947,2.56,23.04,1.707,33.28-1.707c3.413-1.707,6.827-3.413,10.24-5.12
			C469.987,290.84,468.28,283.16,468.28,280.6"/>
		<path style="fill:#FFE100;" d="M84.28,289.133c0,18.773,15.36,34.133,34.133,34.133s0-15.36,0-34.133V331.8
			c0,18.773,15.36,34.133,34.133,34.133s34.133-15.36,34.133-34.133v34.133c0,18.773,15.36,34.133,34.133,34.133l0,0
			c18.773,0,34.133-15.36,34.133-34.133V331.8v136.533c0,18.773,6.827,34.133,25.6,34.133l0,0c18.773,0,17.067-15.36,17.067-34.133
			V246.467l15.36,23.04c6.827,11.093,7.68-11.947,18.773-5.973l0,0c2.56,1.707,14.507,24.747,17.067,25.6
			c17.067,6.827,34.987,19.627,49.493,13.653c3.413-1.707,6.827-3.413,10.24-5.12c10.24-6.827,8.533-14.507,8.533-17.067
			s-48.64-52.053-76.8-102.4c0,0-24.747-40.96-51.2-68.267v-25.6c0-42.667-8.533-76.8-51.2-76.8h-85.333
			c-33.28,0-33.28,28.16-40.96,60.587c-1.707,7.68-5.12,18.773-10.24,24.747C93.667,101.4,84.28,122.733,84.28,152.6V289.133z"/>
	</g>
	<g>
		<path style="fill:#FFA800;" d="M312.973,269.507l-15.36-23.04v221.867c0,17.067,1.707,31.573-12.8,33.28
			c1.707,0,2.56,0.853,4.267,0.853c18.773,0,34.133-15.36,34.133-34.133V282.307C319.8,278.04,316.387,273.773,312.973,269.507"/>
		<path style="fill:#FFA800;" d="M442.68,280.6c0-2.56-48.64-52.053-76.8-102.4c0,0-24.747-40.96-51.2-68.267v-25.6
			c0-42.667-34.133-76.8-76.8-76.8c42.667,0,51.2,34.133,51.2,76.8v25.6c26.453,27.307,51.2,68.267,51.2,68.267
			c28.16,50.347,76.8,99.84,76.8,102.4s1.707,10.24-8.533,17.067c-3.413,1.707-5.973,4.267-10.24,5.12
			c-2.56,0.853-5.12,1.707-7.68,1.707c11.947,2.56,23.04,1.707,33.28-1.707c3.413-1.707,6.827-3.413,10.24-5.12
			C444.387,290.84,442.68,283.16,442.68,280.6"/>
	</g>
	<path style="fill:#FFFFFF;" d="M84.28,289.133V152.6c0-29.867,9.387-51.2,17.067-59.733c5.12-5.973,8.533-17.067,10.24-24.747
		c7.68-32.427,7.68-60.587,40.96-60.587c-33.28,0-67.413,28.16-75.093,60.587c-1.707,7.68-5.12,18.773-10.24,24.747
		c-7.68,8.533-17.067,29.867-17.067,59.733v136.533c0,18.773,15.36,34.133,34.133,34.133c5.973,0,11.947-1.707,17.067-5.12
		C91.107,313.027,84.28,301.933,84.28,289.133"/>
	<path d="M323.213,255c-3.413,0-5.973-1.707-7.68-5.12L307,232.813c-1.707-4.267,0-9.387,3.413-11.093
		c4.267-1.707,9.387,0,11.093,3.413l8.533,17.067c1.707,4.267,0,9.387-3.413,11.093C325.773,255,324.92,255,323.213,255z"/>
	<path d="M254.947,340.333c-5.12,0-8.533-3.413-8.533-8.533V229.4c0-5.12,3.413-8.533,8.533-8.533c5.12,0,8.533,3.413,8.533,8.533
		v102.4C263.48,336.92,260.067,340.333,254.947,340.333z"/>
	<path d="M186.68,340.333c-5.12,0-8.533-3.413-8.533-8.533v-93.867c0-5.12,3.413-8.533,8.533-8.533c5.12,0,8.533,3.413,8.533,8.533
		V331.8C195.213,336.92,191.8,340.333,186.68,340.333z"/>
	<path d="M118.413,297.667c-5.12,0-8.533-3.413-8.533-8.533V229.4c0-5.12,3.413-8.533,8.533-8.533c5.12,0,8.533,3.413,8.533,8.533
		v59.733C126.947,294.253,123.533,297.667,118.413,297.667z"/>
	<path d="M57.827,118.467c-0.853,0-1.707,0-2.56-0.853c-4.267-1.707-6.827-5.973-5.12-11.093c6.827-20.48,25.6-24.747,44.373-29.867
		l4.267-0.853c5.12-0.853,9.387,1.707,11.093,5.973c1.707,4.267-1.707,9.387-5.973,11.093l-5.12,0.853
		c-18.773,5.12-29.013,7.68-32.427,18.773C64.653,115.907,61.24,118.467,57.827,118.467z"/>
	<path d="M314.68,118.467c-1.707,0-4.267-0.853-5.973-2.56c-5.973-5.12-11.947-9.387-17.92-13.653
		c-5.12-3.413-10.24-6.827-15.36-11.947c-3.413-3.413-4.267-8.533-0.853-11.947c3.413-3.413,8.533-4.267,11.947-0.853
		c5.12,4.267,9.387,6.827,14.507,11.093c6.827,4.267,12.8,9.387,19.627,15.36c3.413,3.413,3.413,8.533,0.853,11.947
		C318.947,117.613,317.24,118.467,314.68,118.467z"/>
	<path d="M289.08,511c-23.893,0-42.667-18.773-42.667-42.667v-68.267c-6.827,5.12-16.213,8.533-25.6,8.533
		c-23.893,0-42.667-18.773-42.667-42.667l0,0c-6.827,5.12-16.213,8.533-25.6,8.533c-23.893,0-42.667-18.773-42.667-42.667v-8.533
		c-6.827,5.12-16.213,8.533-25.6,8.533c-23.893,0-42.667-18.773-42.667-42.667V152.6c0-31.573,10.24-55.467,18.773-65.707
		C63.8,83.48,67.213,75.8,68.92,66.413C77.453,29.72,115.853-1,152.547-1h85.333c46.933,0,85.333,38.4,85.333,85.333v22.187
		c25.6,28.16,48.64,65.707,50.347,67.413c19.627,35.84,51.2,71.68,66.56,88.747c11.947,13.653,12.8,14.507,11.947,19.627
		c0,3.413,0.853,14.507-11.947,23.04c-2.56,1.707-6.827,4.267-11.947,5.973c-33.28,12.8-76.8-4.267-95.573-36.693v65.707
		c0,5.12-3.413,8.533-8.533,8.533c-5.12,0-8.533-3.413-8.533-8.533v-93.867c0-3.413,2.56-6.827,5.973-8.533
		c3.413-0.853,7.68,0,9.387,3.413l15.36,23.04c16.213,28.16,52.907,38.4,75.093,30.72c2.56-0.853,5.12-2.56,8.533-4.267
		c4.267-2.56,5.12-5.12,5.12-7.68c-1.707-1.707-5.12-5.973-7.68-9.387c-15.36-17.92-47.787-54.613-68.267-91.307
		c0,0-24.747-40.107-50.347-66.56c-1.707-1.707-2.56-3.413-2.56-5.973v-25.6c0-37.547-30.72-68.267-68.267-68.267h-85.333
		c-29.013,0-60.587,24.747-66.56,53.76c-3.413,12.8-6.827,23.04-11.947,29.013c-5.973,5.973-15.36,24.747-15.36,53.76v136.533
		c0,14.507,11.093,25.6,25.6,25.6s25.6-11.093,25.6-25.6c0-5.12,3.413-8.533,8.533-8.533c5.12,0,8.533,3.413,8.533,8.533V331.8
		c0,14.507,11.093,25.6,25.6,25.6s25.6-11.093,25.6-25.6c0-5.12,3.413-8.533,8.533-8.533c5.12,0,8.533,3.413,8.533,8.533v34.133
		c0,14.507,11.093,25.6,25.6,25.6c14.507,0,25.6-11.093,25.6-25.6V331.8c0-5.12,3.413-8.533,8.533-8.533
		c5.12,0,8.533,3.413,8.533,8.533v136.533c0,14.507,11.093,25.6,25.6,25.6s25.6-11.093,25.6-25.6V408.6
		c0-5.12,3.413-8.533,8.533-8.533s8.533,3.413,8.533,8.533v59.733C331.747,492.227,312.973,511,289.08,511z"/>
	<path d="M331.747,374.467c0-5.12-3.413-8.533-8.533-8.533s-8.533,3.413-8.533,8.533c0,5.12,3.413,8.533,8.533,8.533
		S331.747,379.587,331.747,374.467"/>
</g>
<g>
</g>
<g>
</g>
<g>
</g>
<g>
</g>
<g>
</g>
<g>
</g>
<g>
</g>
<g>
</g>
<g>
</g>
<g>
</g>
<g>
</g>
<g>
</g>
<g>
</g>
<g>
</g>
<g>
</g>
</svg>
